# xmcd
#
# Track frame offsets: 
#        150
#        11580
#        26571
#        38598
#        51774
#        63680
#        75604
#        90375
#        100340
#        122384
#        132379
#        153192
#        175860
#        192687
#        215264
#        230291
#        241394
#
# Disc length: 3449 seconds
#
# Revision: 0
# Processed by: cddbd v1.5.2PL0 Copyright (c) Steve Scherf et al.
# Submitted via: ExactAudioCopyFreeDBPlugin 1.0
#
DISCID=d70d7711
DTITLE=Sonny Rhodes - Singles and Anthology Tracks
DYEAR=1900
DGENRE=Blues
TTITLE0=Something is Wrong
TTITLE1=All Night Long They Play the Blues
TTITLE2=I Don't Love You No More
TTITLE3=One of These Days
TTITLE4=You Better Stop
TTITLE5=Country Boy
TTITLE6=Finding Out for Myself
TTITLE7=Half Smart Woman
TTITLE8=The Highway is Like a Woman
TTITLE9=Keep Holding On
TTITLE10=Mean Mistreatin' Mama
TTITLE11=Paris Blues
TTITLE12=Up Above My Head
TTITLE13=Cigarette Blues
TTITLE14=The Bloodstone Beat
TTITLE15=Are We Losing Our Thing
TTITLE16=Hen Pecked Man
EXTD=
EXTT0=
EXTT1=
EXTT2=
EXTT3=
EXTT4=
EXTT5=
EXTT6=
EXTT7=
EXTT8=
EXTT9=
EXTT10=
EXTT11=
EXTT12=
EXTT13=
EXTT14=
EXTT15=
EXTT16=
PLAYORDER=
